<?xml version="1.0" encoding="utf-8"?>
<!-- Generator: Adobe Illustrator 16.0.0, SVG Export Plug-In . SVG Version: 6.00 Build 0)  -->
<!DOCTYPE svg PUBLIC "-//W3C//DTD SVG 1.1//EN" "http://www.w3.org/Graphics/SVG/1.1/DTD/svg11.dtd">
<svg version="1.1" id="레이어_1" xmlns="http://www.w3.org/2000/svg" xmlns:xlink="http://www.w3.org/1999/xlink" x="0px"
	 y="0px" width="62px" height="62px" viewBox="0 0 62 62" enable-background="new 0 0 62 62" xml:space="preserve">
<g>
	<path fill="#008A32" d="M30.983,8.203c-14.583,0-26.4,11.819-26.4,26.4c0,6.611,2.441,12.66,6.464,17.293l-6.175,7.566l1.858,1.521
		l5.985-7.334C17.457,58.201,23.891,61,30.983,61c7.108,0,13.556-2.814,18.304-7.385l5.98,7.377l1.861-1.512l-6.18-7.623
		c4.002-4.629,6.43-10.656,6.43-17.254C57.383,20.022,45.561,8.203,30.983,8.203z M30.983,58.6c-13.235,0-24-10.764-24-23.996
		s10.765-24,24-24c13.234,0,24,10.764,24,24C54.982,47.836,44.217,58.6,30.983,58.6z"/>
	<path fill="#008A32" d="M20.13,1H13C6.372,1,1,6.372,1,13v7.221h3.412L20.13,4.415V1z M17.73,3.426L3.415,17.821H3.4V13
		c0-5.292,4.307-9.6,9.6-9.6h4.73V3.426L17.73,3.426z"/>
	<path fill="#008A32" d="M49,1h-7.135v3.415l15.721,15.806H61V13C61,6.372,55.626,1,49,1z M58.6,17.821h-0.016L44.266,3.426V3.4H49
		c5.293,0,9.6,4.308,9.6,9.6V17.821L58.6,17.821z"/>
	<polygon fill="#008A32" points="29.8,34.6 16.57,34.6 16.57,37 32.2,37 32.2,15.4 29.8,15.4 	"/>
</g>
</svg>
