<?xml version="1.0" encoding="utf-8"?>
<!-- Generator: Adobe Illustrator 16.0.0, SVG Export Plug-In . SVG Version: 6.00 Build 0)  -->
<!DOCTYPE svg PUBLIC "-//W3C//DTD SVG 1.1//EN" "http://www.w3.org/Graphics/SVG/1.1/DTD/svg11.dtd">
<svg version="1.1" id="레이어_1" xmlns="http://www.w3.org/2000/svg" xmlns:xlink="http://www.w3.org/1999/xlink" x="0px"
	 y="0px" width="62px" height="62px" viewBox="0 0 62 62" enable-background="new 0 0 62 62" xml:space="preserve">
<path fill="#008A32" d="M30.647,34.773c-3.069,0-5.556,2.482-5.556,5.556c0,1.819,0.872,3.433,2.223,4.444v4.438
	c0,1.846,1.48,3.34,3.333,3.34c1.839,0,3.333-1.494,3.333-3.34v-4.438c1.35-1.019,2.221-2.625,2.221-4.444
	C36.201,37.262,33.715,34.773,30.647,34.773z M31.757,43.473v5.771c0,0.585-0.497,1.093-1.11,1.093
	c-0.597,0-1.112-0.486-1.112-1.093v-5.771c-1.293-0.457-2.221-1.688-2.221-3.144c0-1.841,1.492-3.333,3.333-3.333
	c1.839,0,3.333,1.492,3.333,3.333C33.98,41.781,33.051,43.016,31.757,43.473z"/>
<path fill="#008A32" d="M13.395,24.076v-8.091C13.395,7.71,21.276,1,31,1c9.703,0,17.607,6.708,17.607,14.985v8.091h-2.709v-8.054
	C45.898,8.999,39.21,3.307,31,3.307c-8.229,0-14.9,5.681-14.9,12.715v8.054H13.395L13.395,24.076z"/>
<g>
	<path fill="#008A32" d="M53.414,26.576c0.827,0,1.5,0.673,1.5,1.5V57c0,0.827-0.673,1.5-1.5,1.5H8.584c-0.827,0-1.5-0.673-1.5-1.5
		V28.076c0-0.827,0.673-1.5,1.5-1.5H53.414 M53.414,24.076H8.584c-2.209,0-4,1.791-4,4V57c0,2.209,1.791,4,4,4h44.83
		c2.209,0,4-1.791,4-4V28.076C57.414,25.867,55.623,24.076,53.414,24.076L53.414,24.076z"/>
</g>
</svg>
