<?xml version="1.0" encoding="utf-8"?>
<!-- Generator: Adobe Illustrator 16.0.0, SVG Export Plug-In . SVG Version: 6.00 Build 0)  -->
<!DOCTYPE svg PUBLIC "-//W3C//DTD SVG 1.1//EN" "http://www.w3.org/Graphics/SVG/1.1/DTD/svg11.dtd">
<svg version="1.1" id="레이어_1" xmlns="http://www.w3.org/2000/svg" xmlns:xlink="http://www.w3.org/1999/xlink" x="0px"
	 y="0px" width="62px" height="62px" viewBox="0 0 62 62" enable-background="new 0 0 62 62" xml:space="preserve">
<path fill="#008A32" d="M45.494,24.502c0-11.601-9.395-20.901-20.898-20.901C13,3.602,3.703,13,3.703,24.502
	c0,11.6,9.399,20.898,20.893,20.898C36.1,45.497,45.494,36.104,45.494,24.502z M61,59.195l-1.799,1.801l-19-19
	c-4.199,3.703-9.606,6.006-15.702,6.006C11.5,48.002,1,37.503,1,24.502c0-13.002,10.501-23.5,23.5-23.5
	c13.001,0,23.498,10.498,23.498,23.5c0,5.998-2.294,11.495-5.997,15.693L61,59.195z"/>
</svg>
