<?xml version="1.0" encoding="utf-8"?>
<!-- Generator: Adobe Illustrator 16.0.0, SVG Export Plug-In . SVG Version: 6.00 Build 0)  -->
<!DOCTYPE svg PUBLIC "-//W3C//DTD SVG 1.1//EN" "http://www.w3.org/Graphics/SVG/1.1/DTD/svg11.dtd">
<svg version="1.1" id="Layer_1" xmlns="http://www.w3.org/2000/svg" xmlns:xlink="http://www.w3.org/1999/xlink" x="0px" y="0px"
	 width="48px" height="48px" viewBox="0 0 48 48" enable-background="new 0 0 48 48" xml:space="preserve">
<path fill="#777777" d="M41.691,43.695H6.308c-2.056,0-3.724-1.668-3.724-3.725V12.037c0-2.057,1.668-3.725,3.724-3.725h35.385
	c2.056,0,3.725,1.667,3.725,3.725v27.936C45.417,42.027,43.748,43.695,41.691,43.695z M43.555,12.037
	c0-1.028-0.834-1.863-1.861-1.863H6.308c-1.028,0-1.862,0.835-1.862,1.863v5.587h39.109V12.037z M43.555,19.486H4.446v20.487
	c0,1.026,0.834,1.86,1.862,1.86h35.385c1.027,0,1.861-0.834,1.861-1.86V19.486z M39.829,32.521h-1.861
	c-0.515,0-0.933-0.416-0.933-0.933v-1.862c0-0.515,0.418-0.931,0.933-0.931h1.861c0.517,0,0.933,0.416,0.933,0.931v1.862
	C40.762,32.105,40.346,32.521,39.829,32.521z M39.829,26.004h-1.861c-0.515,0-0.933-0.417-0.933-0.931V23.21
	c0-0.516,0.418-0.931,0.933-0.931h1.861c0.517,0,0.933,0.416,0.933,0.931v1.863C40.762,25.587,40.346,26.004,39.829,26.004z
	 M32.381,32.521H30.52c-0.516,0-0.933-0.416-0.933-0.933v-1.862c0-0.515,0.417-0.931,0.933-0.931h1.861
	c0.514,0,0.932,0.416,0.932,0.931v1.862C33.313,32.105,32.895,32.521,32.381,32.521z M32.381,26.004H30.52
	c-0.516,0-0.933-0.417-0.933-0.931V23.21c0-0.516,0.417-0.931,0.933-0.931h1.861c0.514,0,0.932,0.416,0.932,0.931v1.863
	C33.313,25.587,32.895,26.004,32.381,26.004z M24.932,32.521h-1.863c-0.515,0-0.931-0.416-0.931-0.933v-1.862
	c0-0.515,0.416-0.931,0.931-0.931h1.863c0.514,0,0.932,0.416,0.932,0.931v1.862C25.861,32.105,25.445,32.521,24.932,32.521z
	 M24.932,26.004h-1.863c-0.515,0-0.931-0.417-0.931-0.931V23.21c0-0.516,0.416-0.931,0.931-0.931h1.863
	c0.514,0,0.932,0.416,0.932,0.931v1.863C25.861,25.587,25.445,26.004,24.932,26.004z M17.482,39.039H15.62
	c-0.516,0-0.931-0.416-0.931-0.932v-1.861c0-0.514,0.416-0.932,0.931-0.932h1.863c0.515,0,0.931,0.418,0.931,0.932v1.861
	C18.413,38.623,17.997,39.039,17.482,39.039z M17.482,32.521H15.62c-0.516,0-0.931-0.416-0.931-0.933v-1.862
	c0-0.515,0.416-0.931,0.931-0.931h1.863c0.515,0,0.931,0.416,0.931,0.931v1.862C18.413,32.105,17.997,32.521,17.482,32.521z
	 M17.482,26.004H15.62c-0.516,0-0.931-0.417-0.931-0.931V23.21c0-0.516,0.416-0.931,0.931-0.931h1.863
	c0.515,0,0.931,0.416,0.931,0.931v1.863C18.413,25.587,17.997,26.004,17.482,26.004z M10.033,39.039H8.17
	c-0.515,0-0.931-0.416-0.931-0.932v-1.861c0-0.514,0.416-0.932,0.931-0.932h1.862c0.515,0,0.931,0.418,0.931,0.932v1.861
	C10.963,38.623,10.548,39.039,10.033,39.039z M10.033,32.521H8.17c-0.515,0-0.931-0.416-0.931-0.933v-1.862
	c0-0.515,0.416-0.931,0.931-0.931h1.862c0.515,0,0.931,0.416,0.931,0.931v1.862C10.963,32.105,10.548,32.521,10.033,32.521z
	 M23.069,35.314h1.863c0.514,0,0.932,0.418,0.932,0.932v1.861c0,0.516-0.418,0.932-0.932,0.932h-1.863
	c-0.515,0-0.931-0.416-0.931-0.932v-1.861C22.138,35.732,22.554,35.314,23.069,35.314z"/>
<path fill="#FFFFFF" stroke="#777777" stroke-width="2" stroke-miterlimit="10" d="M14.997,6.15c0-1.02-0.828-1.847-1.847-1.847
	S11.303,5.13,11.303,6.15v5.541c0,1.02,0.828,1.847,1.847,1.847s1.847-0.827,1.847-1.847V6.15z"/>
<path fill="#FFFFFF" stroke="#777777" stroke-width="2" stroke-miterlimit="10" d="M36.773,6.15c0-1.02-0.828-1.847-1.846-1.847
	c-1.021,0-1.849,0.827-1.849,1.847v5.541c0,1.02,0.827,1.847,1.849,1.847c1.018,0,1.846-0.827,1.846-1.847V6.15z"/>
</svg>
