<?xml version="1.0" encoding="utf-8"?>
<!-- Generator: Adobe Illustrator 16.0.0, SVG Export Plug-In . SVG Version: 6.00 Build 0)  -->
<!DOCTYPE svg PUBLIC "-//W3C//DTD SVG 1.1//EN" "http://www.w3.org/Graphics/SVG/1.1/DTD/svg11.dtd">
<svg version="1.1" id="Layer_1" xmlns="http://www.w3.org/2000/svg" xmlns:xlink="http://www.w3.org/1999/xlink" x="0px" y="0px"
	 width="48px" height="48px" viewBox="0 0 48 48" enable-background="new 0 0 48 48" xml:space="preserve">
<path fill="#777777" d="M24,47c0,0-18-9.417-18-28C6,9.059,14.059,1,24,1c9.941,0,18,8.059,18,18C42,37.583,24,47,24,47z M24,3
	C15.178,3,8,10.178,8,19c0,14.758,12.462,23.501,16.003,25.688C27.547,42.51,40,33.805,40,19C40,10.178,32.822,3,24,3z M24,28
	c-4.971,0-9-4.029-9-9s4.029-9,9-9c4.971,0,9,4.029,9,9S28.971,28,24,28z M24,12c-3.866,0-7,3.134-7,7s3.134,7,7,7s7-3.134,7-7
	S27.866,12,24,12z"/>
</svg>
