<?xml version="1.0" encoding="utf-8"?>
<!-- Generator: Adobe Illustrator 16.0.0, SVG Export Plug-In . SVG Version: 6.00 Build 0)  -->
<!DOCTYPE svg PUBLIC "-//W3C//DTD SVG 1.1//EN" "http://www.w3.org/Graphics/SVG/1.1/DTD/svg11.dtd">
<svg version="1.1" id="레이어_1" xmlns="http://www.w3.org/2000/svg" xmlns:xlink="http://www.w3.org/1999/xlink" x="0px"
	 y="0px" width="100px" height="24px" viewBox="0 0 100 24" enable-background="new 0 0 100 24" xml:space="preserve">
<g>
	<path fill="#EDEFED" d="M99.596,10.853l-4.854,3.433l1.732,5.384c0.063,0.117,0.098,0.251,0.098,0.392
		c0,0.472-0.395,0.854-0.882,0.854c-0.206,0-0.396-0.069-0.548-0.186l-5.142-3.265l-5.144,3.265
		c-0.149,0.116-0.341,0.186-0.548,0.186c-0.487,0-0.882-0.383-0.882-0.854c0-0.142,0.036-0.275,0.099-0.392l1.732-5.384
		l-4.855-3.433C80.161,10.701,80,10.437,80,10.135c0,0.302-0.161,0.565-0.404,0.718l-4.854,3.433l1.732,5.384
		c0.063,0.117,0.098,0.251,0.098,0.392c0,0.472-0.395,0.854-0.882,0.854c-0.206,0-0.396-0.069-0.548-0.186l-5.142-3.265
		l-5.144,3.265c-0.149,0.116-0.341,0.186-0.548,0.186c-0.487,0-0.882-0.383-0.882-0.854c0-0.142,0.036-0.275,0.099-0.392
		l1.732-5.384l-4.855-3.433C60.161,10.701,60,10.437,60,10.135c0,0.302-0.161,0.565-0.404,0.718l-4.854,3.433l1.732,5.384
		c0.063,0.117,0.098,0.251,0.098,0.392c0,0.472-0.395,0.854-0.882,0.854c-0.206,0-0.396-0.069-0.548-0.186L50,17.465l-5.143,3.265
		c-0.15,0.116-0.341,0.186-0.547,0.186c-0.488,0-0.882-0.383-0.882-0.854c0-0.142,0.036-0.275,0.099-0.392l1.732-5.384l-4.855-3.433
		C40.161,10.701,40,10.437,40,10.135c0,0.302-0.161,0.565-0.404,0.718l-4.854,3.433l1.732,5.384
		c0.063,0.117,0.099,0.251,0.099,0.392c0,0.472-0.395,0.854-0.882,0.854c-0.207,0-0.396-0.069-0.547-0.186L30,17.465l-5.143,3.265
		c-0.15,0.116-0.341,0.186-0.547,0.186c-0.488,0-0.882-0.383-0.882-0.854c0-0.142,0.036-0.275,0.099-0.392l1.732-5.384l-4.855-3.433
		C20.161,10.701,20,10.437,20,10.135c0,0.302-0.161,0.565-0.404,0.718l-4.854,3.433l1.732,5.384
		c0.063,0.117,0.099,0.251,0.099,0.392c0,0.472-0.395,0.854-0.882,0.854c-0.207,0-0.396-0.069-0.547-0.186L10,17.465l-5.143,3.265
		c-0.15,0.116-0.341,0.186-0.547,0.186c-0.488,0-0.882-0.383-0.882-0.854c0-0.142,0.036-0.275,0.099-0.392l1.732-5.384l-4.855-3.433
		C0.161,10.701,0,10.437,0,10.135V24h100V10.135C100,10.437,99.839,10.7,99.596,10.853z"/>
	<path fill="#EDEFED" d="M0,0v10.135C0,9.663,0.395,9.28,0.882,9.281c0.031,0,0.062,0.001,0.093,0.004L7.07,9.142l2.083-5.436
		C9.258,3.348,9.597,3.086,10,3.086c0.403,0,0.742,0.262,0.847,0.62l2.082,5.436l6.095,0.144c0.031-0.002,0.062-0.004,0.093-0.004
		c0.488,0,0.883,0.383,0.883,0.854c0-0.472,0.395-0.854,0.882-0.854c0.031,0,0.062,0.001,0.093,0.004l6.095-0.144l2.083-5.436
		c0.105-0.358,0.444-0.62,0.848-0.62c0.403,0,0.742,0.262,0.847,0.62l2.082,5.436l6.095,0.144c0.031-0.002,0.062-0.004,0.093-0.004
		c0.488,0,0.883,0.383,0.883,0.854c0-0.472,0.395-0.854,0.882-0.854c0.031,0,0.062,0.001,0.093,0.004l6.095-0.144l2.083-5.436
		c0.105-0.358,0.444-0.62,0.848-0.62c0.402,0,0.742,0.262,0.848,0.62l2.082,5.436l6.095,0.144c0.03-0.002,0.062-0.004,0.093-0.004
		c0.488,0,0.883,0.383,0.883,0.854c0-0.472,0.396-0.854,0.882-0.854c0.031,0,0.063,0.001,0.094,0.004l6.094-0.144l2.083-5.436
		c0.105-0.358,0.444-0.62,0.848-0.62s0.742,0.262,0.848,0.62l2.082,5.436l6.095,0.144c0.03-0.002,0.062-0.004,0.093-0.004
		c0.488,0,0.883,0.383,0.883,0.854c0-0.472,0.396-0.854,0.882-0.854c0.031,0,0.063,0.001,0.094,0.004l6.094-0.144l2.083-5.436
		c0.105-0.358,0.444-0.62,0.848-0.62s0.742,0.262,0.848,0.62l2.082,5.436l6.095,0.144c0.03-0.002,0.062-0.004,0.093-0.004
		c0.488,0,0.883,0.383,0.883,0.854V0H0z"/>
</g>
</svg>
