<?xml version="1.0" encoding="utf-8"?>
<!-- Generator: Adobe Illustrator 16.0.0, SVG Export Plug-In . SVG Version: 6.00 Build 0)  -->
<!DOCTYPE svg PUBLIC "-//W3C//DTD SVG 1.1//EN" "http://www.w3.org/Graphics/SVG/1.1/DTD/svg11.dtd">
<svg version="1.1" id="Layer_1" xmlns="http://www.w3.org/2000/svg" xmlns:xlink="http://www.w3.org/1999/xlink" x="0px" y="0px"
	 width="48px" height="48px" viewBox="0 0 48 48" enable-background="new 0 0 48 48" xml:space="preserve">
<path fill="#777777" d="M42.817,1.648l-1.391,0.485c-0.036,0.012-3.804,1.303-9.759,1.303c-3.033,0-5.923-0.616-8.717-1.211
	C20.127,1.623,17.205,1,14.111,1c-6.168,0-8.26,1.324-8.479,1.475L5.182,2.787V3.13v23.505V47h2.092V27.007
	c0.832-0.325,2.871-0.904,6.838-0.904c2.873,0,5.561,0.573,8.404,1.18c2.899,0.619,5.898,1.258,9.152,1.258
	c6.34,0,10.287-1.362,10.451-1.42l0.699-0.246L42.817,1.648z M40.728,25.354c-1.353,0.369-4.589,1.095-9.06,1.095
	c-3.033,0-5.923-0.616-8.717-1.212c-2.824-0.603-5.746-1.225-8.84-1.225c-3.387,0-5.545,0.398-6.838,0.785V3.992
	c0.837-0.325,2.882-0.901,6.838-0.901c2.873,0,5.561,0.573,8.404,1.179c2.899,0.618,5.898,1.257,9.152,1.257
	c4.212,0,7.367-0.602,9.06-1.022V25.354z"/>
</svg>
